<?xml version="1.0" standalone="no"?>
<!DOCTYPE svg PUBLIC "-//W3C//DTD SVG 20010904//EN"
 "http://www.w3.org/TR/2001/REC-SVG-20010904/DTD/svg10.dtd">
<svg version="1.0" xmlns="http://www.w3.org/2000/svg"
 width="575.000000pt" height="90.000000pt" viewBox="0 0 575.000000 90.000000"
 preserveAspectRatio="xMidYMid meet">

<g transform="translate(0.000000,90.000000) scale(0.100000,-0.100000)"
fill="#000000" stroke="none">
<path d="M532 826 c-91 -23 -194 -81 -264 -148 -124 -119 -184 -275 -174 -449
5 -79 3 -99 -9 -109 -8 -7 -15 -19 -15 -26 0 -18 24 -18 40 1 10 12 29 14 99
9 102 -7 211 12 291 50 163 77 289 240 322 414 12 67 5 239 -10 254 -17 17
-217 20 -280 4z m256 -31 c4 -3 6 -56 6 -118 -1 -89 -5 -124 -22 -171 -45
-123 -121 -219 -226 -288 -96 -62 -184 -83 -335 -79 -46 1 -52 3 -41 16 8 10
37 15 93 17 97 4 110 22 18 26 l-64 3 39 40 c37 37 41 39 104 39 72 0 106 13
80 30 -8 5 -35 10 -60 10 l-44 0 39 40 c39 39 39 39 116 39 43 0 83 2 89 6 23
14 -5 25 -68 25 l-66 0 39 40 c37 38 42 40 102 40 49 0 63 3 63 15 0 11 -12
15 -47 15 l-47 0 39 40 c31 32 46 40 82 42 50 3 62 20 20 28 l-28 5 30 29 c32
30 40 56 19 56 -7 0 -27 -14 -45 -32 l-33 -32 0 27 c0 17 -5 27 -15 27 -11 0
-15 -11 -15 -43 0 -37 -6 -48 -39 -81 l-40 -39 -3 63 c-2 40 -8 65 -15 68 -10
3 -13 -18 -13 -80 l0 -84 -40 -39 -40 -39 0 32 c0 22 -5 32 -15 32 -11 0 -15
-12 -15 -48 0 -43 -4 -52 -40 -87 l-39 -38 -3 84 c-2 67 -6 84 -18 84 -12 0
-16 -20 -18 -106 l-3 -106 -39 -38 -40 -39 0 43 c0 66 -24 47 -28 -21 -2 -31
-9 -61 -16 -67 -11 -9 -15 -1 -20 40 -4 28 -4 72 -1 97 32 237 207 433 429
479 58 12 222 11 234 -2z"/>
<path d="M616 783 c-12 -12 -6 -33 9 -33 8 0 15 6 15 14 0 17 -14 28 -24 19z"/>
<path d="M504 746 c-4 -10 -2 -22 4 -28 8 -8 13 -7 18 6 4 10 2 22 -4 28 -8 8
-13 7 -18 -6z"/>
<path d="M745 641 c-3 -5 -1 -12 5 -16 12 -7 30 2 30 16 0 12 -27 12 -35 0z"/>
<path d="M275 580 c-10 -16 16 -43 28 -31 11 11 2 41 -12 41 -5 0 -13 -5 -16
-10z"/>
<path d="M392 569 c1 -13 8 -23 13 -21 15 3 12 35 -3 40 -9 3 -13 -3 -10 -19z"/>
<path d="M670 525 c0 -8 9 -15 20 -15 11 0 20 7 20 15 0 8 -9 15 -20 15 -11 0
-20 -7 -20 -15z"/>
<path d="M617 424 c-15 -15 -6 -24 24 -24 20 0 29 4 27 13 -5 14 -40 21 -51
11z"/>
<path d="M160 346 c0 -8 4 -17 9 -20 11 -7 33 18 24 27 -12 12 -33 7 -33 -7z"/>
<path d="M465 310 c-4 -7 -3 -16 3 -22 14 -14 45 -2 40 15 -6 16 -34 21 -43 7z"/>
<path d="M362 188 c7 -19 38 -22 38 -4 0 10 -9 16 -21 16 -12 0 -19 -5 -17
-12z"/>
<path d="M900 455 l0 -245 50 0 50 0 1 158 c0 173 -2 172 44 9 l17 -58 41 3
41 3 31 105 30 105 3 -162 2 -163 45 0 45 0 0 245 0 245 -59 0 -58 0 -39 -134
c-21 -74 -40 -133 -42 -131 -2 2 -21 61 -42 132 l-38 128 -61 3 -61 3 0 -246z"/>
<path d="M1390 455 l0 -245 135 0 135 0 0 40 0 40 -80 0 -80 0 0 65 0 65 65 0
65 0 0 40 0 40 -65 0 -65 0 0 60 0 60 75 0 75 0 0 40 0 40 -130 0 -130 0 0
-245z"/>
<path d="M1730 455 l0 -245 103 0 c113 0 162 10 183 37 10 14 13 64 14 211 0
192 0 193 -25 217 -23 24 -30 25 -150 25 l-125 0 0 -245z m188 3 l2 -168 -40
0 -40 0 0 171 0 170 38 -3 37 -3 3 -167z"/>
<path d="M2120 455 l0 -245 55 0 55 0 0 245 0 245 -55 0 -55 0 0 -245z"/>
<path d="M2339 681 c-24 -19 -24 -21 -24 -220 0 -243 -1 -241 117 -249 93 -6
151 9 166 43 8 17 12 92 12 211 0 183 0 185 -25 209 -22 23 -31 25 -123 25
-83 0 -104 -3 -123 -19z m159 -223 l-3 -163 -35 0 -35 0 -3 150 c-1 82 0 155
2 162 3 7 21 13 41 13 l35 0 -2 -162z"/>
<path d="M2925 688 c-5 -17 -105 -465 -105 -472 0 -3 24 -6 54 -6 l54 0 6 45
7 45 58 0 59 0 6 -45 7 -45 55 0 c30 0 54 4 54 9 0 5 -22 105 -50 223 -27 117
-52 223 -55 236 -5 20 -11 22 -76 22 -47 0 -71 -4 -74 -12z m94 -198 c7 -36
15 -75 18 -87 5 -21 2 -23 -37 -23 -42 0 -42 0 -36 30 3 17 11 60 18 95 6 36
15 62 18 58 4 -5 13 -37 19 -73z"/>
<path d="M3240 455 l0 -245 45 0 45 0 0 162 c0 89 2 159 5 156 3 -3 18 -50 34
-104 l28 -99 43 0 c42 0 43 1 56 45 7 25 21 72 31 105 l18 60 3 -162 2 -163
45 0 45 0 0 245 0 245 -60 0 -59 0 -20 -67 c-11 -38 -28 -96 -37 -130 -10 -35
-20 -63 -24 -63 -4 0 -14 28 -24 63 -9 34 -26 92 -37 130 l-20 67 -59 0 -60 0
0 -245z"/>
<path d="M3730 455 l0 -245 103 0 c125 0 170 11 185 46 18 39 15 164 -4 185
-14 16 -14 20 1 43 13 20 16 43 13 102 -5 109 -13 114 -174 114 l-124 0 0
-245z m188 108 l3 -63 -41 0 -40 0 0 66 0 65 38 -3 37 -3 3 -62z m2 -208 l0
-65 -40 0 -40 0 0 65 0 65 40 0 40 0 0 -65z"/>
<path d="M4120 455 l0 -245 50 0 50 0 0 245 0 245 -50 0 -50 0 0 -245z"/>
<path d="M4310 455 l0 -245 135 0 135 0 0 40 0 40 -80 0 -80 0 0 65 0 65 65 0
65 0 0 40 0 40 -65 0 -65 0 0 60 0 60 75 0 75 0 0 40 0 40 -130 0 -130 0 0
-245z"/>
<path d="M4650 454 l0 -245 48 3 47 3 1 127 c0 70 3 130 6 133 3 3 27 -55 53
-130 l49 -135 48 0 48 0 0 245 0 245 -50 0 -50 0 -1 -142 0 -143 -51 143 -51
142 -48 0 -49 0 0 -246z"/>
<path d="M5008 672 c-6 -45 0 -52 48 -52 l44 0 0 -205 0 -205 55 0 55 0 0 205
0 205 45 0 45 0 0 40 0 40 -144 0 -144 0 -4 -28z"/>
<path d="M5350 455 l0 -245 135 0 135 0 0 40 0 40 -80 0 -80 0 0 65 0 65 65 0
65 0 0 40 0 40 -65 0 -65 0 0 60 0 60 75 0 75 0 0 40 0 40 -130 0 -130 0 0
-245z"/>
</g>
</svg>
